<svg enable-background="new 0 0 512.001 512.001" viewBox="0 0 512.001 512.001" xmlns="http://www.w3.org/2000/svg"><path d="m469.186 319.388h-3.903l-97.459-97.459v-48.042c0-8.284-6.716-15-15-15h-32.534c-8.284 0-15 6.716-15 15v145.5h-16.843l-115.63-105.979c-.156-.172-.301-.35-.466-.516-.49-.49-1.012-.923-1.548-1.331l-64.485-59.103c.828-.817 1.641-1.653 2.428-2.522 5.562-6.141 5.091-15.626-1.049-21.187-6.143-5.562-62.482-56.585-68.622-62.146-6.143-5.562-15.627-5.091-21.188 1.049-10.991 12.136-16.597 27.824-15.787 44.175s7.938 31.408 20.073 42.397c11.365 10.292 25.847 15.863 41.071 15.863 1.03 0 2.065-.025 3.103-.077 4.308-.213 8.521-.877 12.599-1.944l61.057 55.96-95.361 95.361h-1.827c-23.609.001-42.815 19.208-42.815 42.816s19.206 42.814 42.814 42.814h4.864c5.095-29.992 31.249-52.907 62.67-52.907s57.575 22.915 62.671 52.907h165.963c5.095-29.992 31.25-52.907 62.671-52.907s57.575 22.915 62.67 52.907h4.864c23.608 0 42.814-19.206 42.814-42.814s-19.207-42.815-42.815-42.815zm-382.119 0 75.072-75.072 81.908 75.072zm280.756 0v-55.033l55.033 55.033z"/><path d="m110.348 382.11c-18.519 0-33.584 15.067-33.584 33.585 0 18.519 15.065 33.585 33.584 33.585s33.585-15.066 33.585-33.585-15.066-33.585-33.585-33.585z"/><path d="m401.652 382.11c-18.519 0-33.585 15.067-33.585 33.585 0 18.519 15.066 33.585 33.585 33.585s33.584-15.066 33.584-33.585-15.065-33.585-33.584-33.585z"/></svg>