<?xml version="1.0" encoding="iso-8859-1"?>
<!-- Generator: Adobe Illustrator 19.0.0, SVG Export Plug-In . SVG Version: 6.00 Build 0)  -->
<svg version="1.1" id="Capa_1" xmlns="http://www.w3.org/2000/svg" xmlns:xlink="http://www.w3.org/1999/xlink" x="0px" y="0px"
	 viewBox="0 0 512.001 512.001" style="enable-background:new 0 0 512.001 512.001;" xml:space="preserve">
<g>
	<g>
		<path d="M469.186,319.388h-3.903l-97.459-97.459v-48.042c0-8.284-6.716-15-15-15H320.29c-8.284,0-15,6.716-15,15v145.5h-16.843
			l-115.63-105.979c-0.156-0.172-0.301-0.35-0.466-0.516c-0.49-0.49-1.012-0.923-1.548-1.331l-64.485-59.103
			c0.828-0.817,1.641-1.653,2.428-2.522c5.562-6.141,5.091-15.626-1.049-21.187c-6.143-5.562-62.482-56.585-68.622-62.146
			c-6.143-5.562-15.627-5.091-21.188,1.049C6.896,79.788,1.29,95.476,2.1,111.827s7.938,31.408,20.073,42.397
			c11.365,10.292,25.847,15.863,41.071,15.863c1.03,0,2.065-0.025,3.103-0.077c4.308-0.213,8.521-0.877,12.599-1.944l61.057,55.96
			l-95.361,95.361h-1.827C19.206,319.388,0,338.595,0,362.203c0,23.608,19.206,42.814,42.814,42.814h4.864
			c5.095-29.992,31.249-52.907,62.67-52.907c31.421,0,57.575,22.915,62.671,52.907h165.963c5.095-29.992,31.25-52.907,62.671-52.907
			c31.421,0,57.575,22.915,62.67,52.907h4.864c23.608,0,42.814-19.206,42.814-42.814
			C512.001,338.595,492.794,319.388,469.186,319.388z M87.067,319.388l75.072-75.072l81.908,75.072H87.067z M367.823,319.388
			v-55.033l55.033,55.033H367.823z"/>
	</g>
</g>
<g>
	<g>
		<path d="M110.348,382.11c-18.519,0-33.584,15.067-33.584,33.585c0,18.519,15.065,33.585,33.584,33.585
			c18.519,0,33.585-15.066,33.585-33.585S128.867,382.11,110.348,382.11z"/>
	</g>
</g>
<g>
	<g>
		<path d="M401.652,382.11c-18.519,0-33.585,15.067-33.585,33.585c0,18.519,15.066,33.585,33.585,33.585
			s33.584-15.066,33.584-33.585S420.171,382.11,401.652,382.11z"/>
	</g>
</g>
<g>
</g>
<g>
</g>
<g>
</g>
<g>
</g>
<g>
</g>
<g>
</g>
<g>
</g>
<g>
</g>
<g>
</g>
<g>
</g>
<g>
</g>
<g>
</g>
<g>
</g>
<g>
</g>
<g>
</g>
</svg>
