<svg enable-background="new 0 0 196.285 196.285" height="196.285" viewBox="0 0 196.285 196.285" width="196.285" xmlns="http://www.w3.org/2000/svg"><path d="m38.228 155.075c-26.554-39.188-7.814-69.794-7.814-69.794-4.354-1.289-18.279 7.837-18.279 7.837 7.832-28.702 50.91-53.087 50.91-53.087-4.782-1.75-18.273 1.726-18.273 1.726 35.243-33.919 78.326-21.306 78.326-21.306 1.3-7.403 22.632-20.451 22.632-20.451-2.182 2.161-3.062 13.926-3.062 13.926 2.176-3.922 9.15-7.837 9.15-7.837-3.913 9.126 0 28.703 0 28.703 11.312 11.322 23.927 50.49 23.927 50.49l4.8 6.96c6.094 8.715 3.854 22.417-2.182 25.667-22.62 12.212-24.808-10.001-24.808-10.001-18.713-2.176-32.639-23.07-32.639-23.07-25.23 13.051-11.178 49.869-.284 64.007 13.997 18.123 3.748 47.44 3.748 47.44s-59.932-2.482-86.152-41.21z"/></svg>